<?xml version="1.0" standalone="no"?>
<!DOCTYPE svg PUBLIC "-//W3C//DTD SVG 20010904//EN"
 "http://www.w3.org/TR/2001/REC-SVG-20010904/DTD/svg10.dtd">
<svg version="1.0" xmlns="http://www.w3.org/2000/svg"
 width="500.000000pt" height="500.000000pt" viewBox="0 0 500.000000 500.000000"
 preserveAspectRatio="xMidYMid meet">

<g transform="translate(0.000000,500.000000) scale(0.100000,-0.100000)"
fill="#000000" stroke="none">
<path d="M1989 3600 c-6 -17 -16 -27 -21 -23 -8 4 -9 -7 -5 -34 6 -35 4 -41
-12 -46 -13 -3 -23 -19 -30 -48 -6 -24 -21 -66 -32 -94 -12 -27 -45 -116 -73
-196 -29 -83 -63 -159 -78 -177 -14 -17 -31 -55 -38 -84 -7 -29 -21 -74 -32
-100 -19 -44 -19 -48 -3 -72 10 -14 40 -42 69 -63 28 -20 70 -56 94 -80 24
-24 48 -41 53 -37 5 3 14 -7 20 -23 10 -28 146 -148 189 -167 27 -12 36 1 50
74 6 30 17 75 25 100 8 25 24 104 36 175 12 72 28 140 35 152 17 28 29 131 20
168 -4 15 -30 51 -58 81 -28 30 -45 54 -38 54 7 0 18 -7 24 -16 6 -8 30 -19
53 -25 73 -16 212 -90 213 -113 0 -5 14 -40 31 -77 28 -59 30 -72 20 -100 -9
-26 -8 -38 9 -68 10 -20 21 -58 23 -86 3 -27 19 -105 37 -172 33 -123 51 -152
76 -119 6 9 17 16 25 16 21 1 70 49 128 126 42 55 57 68 76 66 29 -4 62 36 77
96 7 28 14 39 19 31 6 -10 18 -8 56 12 41 20 48 29 51 57 2 20 -1 32 -9 32 -7
0 -9 10 -6 27 3 17 -3 44 -18 73 -12 25 -26 65 -30 88 -4 24 -16 51 -26 60
-10 9 -19 28 -20 42 0 39 -33 115 -49 115 -8 0 -25 -14 -38 -33 l-23 -33 -20
25 c-15 19 -27 25 -49 22 -25 -3 -30 1 -35 23 -4 19 -16 31 -39 39 -45 16 -44
17 -56 -28 -13 -49 -30 -43 -30 10 0 42 -11 54 -50 55 -14 0 -26 6 -26 13 -1
6 -2 17 -3 22 0 6 -10 10 -20 10 -14 0 -22 -10 -27 -32 -8 -32 -9 -32 -14 17
-5 47 -7 50 -34 50 -19 -1 -39 10 -62 32 -36 34 -61 40 -94 23 -21 -11 -60 5
-60 25 0 5 -16 25 -34 43 -32 31 -38 33 -83 28 -54 -6 -109 5 -105 23 1 6 -6
11 -15 12 -14 0 -13 2 5 9 12 6 22 18 22 30 0 31 -30 24 -41 -10z m411 -514
c7 -9 9 -16 4 -16 -11 1 -54 36 -54 44 0 10 35 -11 50 -28z"/>
<path d="M2100 3605 c0 -16 62 -21 95 -9 27 11 -3 24 -52 24 -32 0 -43 -4 -43
-15z"/>
<path d="M2525 3579 c-4 -6 -5 -12 -2 -15 2 -3 7 2 10 11 7 17 1 20 -8 4z"/>
<path d="M1520 2740 c18 -23 46 -73 62 -113 16 -39 34 -77 40 -84 8 -10 6 -13
-6 -13 -13 0 -16 -5 -10 -22 12 -40 43 -96 56 -102 7 -3 1 -4 -14 -2 -16 2
-28 2 -28 0 0 -2 16 -25 36 -51 31 -40 34 -48 19 -53 -16 -6 -16 -7 0 -20 9
-8 35 -41 57 -75 65 -96 96 -123 218 -186 137 -71 199 -114 107 -74 -32 14
-84 39 -117 55 -53 27 -60 28 -60 13 0 -24 85 -152 137 -205 23 -24 76 -77
118 -118 107 -105 155 -214 155 -354 0 -65 16 -113 41 -127 11 -5 19 -20 19
-34 0 -13 5 -27 11 -31 7 -4 10 8 9 37 -3 69 -1 79 15 79 13 0 14 -4 5 -21 -7
-11 -9 -23 -7 -26 16 -15 39 70 48 174 14 165 30 193 179 333 75 71 137 139
170 187 27 42 50 80 50 85 0 4 -18 -1 -41 -12 -40 -21 -215 -90 -227 -90 -21
0 38 34 170 100 138 68 156 80 195 130 24 30 64 79 89 108 41 47 43 51 19 42
-14 -5 -29 -10 -31 -10 -8 0 37 58 71 92 l30 31 -34 -8 -34 -7 25 33 c30 39
61 99 53 99 -4 0 -15 -5 -26 -10 -25 -14 -24 -2 5 41 14 20 36 64 50 99 15 35
36 75 49 89 21 24 21 25 1 11 -33 -22 -366 -304 -469 -396 -50 -45 -105 -89
-122 -97 -28 -15 -32 -15 -44 -1 -8 10 -21 13 -38 9 -34 -8 -50 -24 -19 -19
13 3 29 0 37 -5 23 -15 -13 -82 -77 -143 -52 -49 -55 -51 -69 -33 -7 11 -11
26 -7 35 3 8 8 44 11 80 4 53 2 68 -11 79 -9 7 -16 26 -16 41 0 16 -3 35 -6
44 -11 28 -24 6 -24 -38 0 -28 -6 -48 -16 -57 -13 -11 -15 -25 -10 -74 3 -33
9 -72 12 -87 10 -44 -16 -35 -81 30 -89 88 -106 147 -38 134 18 -3 24 -1 19 7
-9 14 -63 15 -71 1 -10 -16 -37 3 -154 108 -257 231 -484 427 -499 431 -10 2
-4 -12 18 -39z m830 -1501 c0 -5 -4 -9 -10 -9 -5 0 -10 7 -10 16 0 8 5 12 10
9 6 -3 10 -10 10 -16z"/>
<path d="M3203 2354 c-10 -16 -28 -37 -40 -47 -12 -9 -32 -45 -45 -78 -17 -47
-32 -68 -60 -87 -22 -14 -61 -61 -94 -111 -31 -47 -65 -95 -74 -106 -10 -11
-35 -49 -55 -85 -43 -76 -43 -74 30 -235 46 -102 51 -108 132 -141 2 0 -18
-22 -43 -48 -38 -40 -45 -53 -40 -75 4 -14 9 -44 13 -66 3 -22 13 -44 21 -49
9 -5 11 -11 4 -15 -6 -3 -13 -18 -17 -33 l-7 -26 62 1 c48 0 60 3 56 14 -6 15
7 10 35 -14 9 -8 50 -15 102 -17 48 -3 90 -7 95 -10 5 -3 39 -8 76 -11 37 -2
75 -9 85 -15 30 -15 150 -18 241 -4 47 6 98 10 114 7 31 -7 32 -9 -14 59 -18
28 -30 36 -43 32 -15 -5 -18 -2 -13 15 3 12 8 30 12 41 3 10 -2 30 -10 43 -9
12 -25 49 -35 80 -27 79 -60 134 -82 140 -11 3 -19 14 -19 26 0 11 -18 44 -39
72 -47 63 -102 173 -125 251 -21 72 -37 89 -78 81 -28 -6 -31 -4 -23 13 28 68
29 93 6 146 -12 29 -38 100 -57 158 -19 58 -39 109 -43 113 -5 5 -17 -3 -28
-19z m-139 -828 c-10 -20 -24 -36 -31 -36 -17 0 -16 5 2 40 13 25 34 42 43 35
2 -1 -5 -19 -14 -39z"/>
<path d="M1532 2258 c-23 -18 -48 -47 -56 -65 -19 -37 -21 -113 -4 -113 6 0 4
-6 -5 -12 -12 -9 -20 -37 -27 -95 -7 -64 -18 -100 -53 -170 -24 -48 -54 -124
-67 -167 -26 -92 -67 -162 -166 -286 -21 -26 -34 -55 -38 -87 -4 -26 -10 -63
-13 -81 -5 -32 -6 -33 -17 -11 -6 12 -16 24 -23 26 -7 3 -38 -21 -70 -51 -32
-32 -51 -56 -42 -57 77 -6 117 -28 125 -69 5 -22 10 -26 30 -22 14 2 31 13 38
24 14 20 14 20 26 -2 9 -16 19 -21 43 -19 18 2 43 -3 57 -11 23 -13 24 -14 5
-22 -14 -5 -10 -6 10 -1 30 7 59 10 123 12 17 0 41 10 51 20 11 11 21 18 23
16 2 -2 4 6 5 18 0 12 -1 17 -3 11 -6 -13 -44 -7 -44 7 0 5 -7 9 -15 9 -8 0
-15 6 -15 14 0 15 21 21 110 32 30 3 63 10 73 15 9 5 17 7 17 5 0 -3 11 -1 25
4 16 6 25 6 25 0 0 -5 6 -7 14 -4 8 3 12 13 9 24 -6 24 31 35 70 21 15 -6 27
-7 27 -2 0 14 68 34 101 29 24 -4 29 -2 23 11 -3 9 -10 52 -14 96 -7 73 -6 82
16 115 18 27 26 59 34 131 5 52 16 112 25 132 17 42 17 42 -45 135 -42 63 -83
102 -108 102 -13 0 -13 3 1 18 10 10 17 27 17 36 0 21 -89 111 -119 121 -13 4
-21 15 -21 28 0 23 -95 167 -110 167 -4 0 -26 -15 -48 -32z m-229 -1180 c8
-32 11 -58 7 -58 -5 0 -12 10 -16 23 -4 12 -10 24 -14 27 -4 3 -5 20 -3 38 3
18 7 32 8 30 2 -2 10 -29 18 -60z"/>
<path d="M1810 1150 c0 -5 16 -10 36 -10 21 0 33 4 29 10 -3 6 -19 10 -36 10
-16 0 -29 -4 -29 -10z"/>
<path d="M4070 920 c-8 -5 -10 -10 -5 -10 6 0 17 5 25 10 8 5 11 10 5 10 -5 0
-17 -5 -25 -10z"/>
</g>
</svg>
